<svg id="circle-spinner-two" class="Spinner Spinner-two" xmlns="http://www.w3.org/2000/svg" viewBox="0 0 400 400"><path d="M127.75 59.38c.81.31 1.67.47 2.57.47 1.27 0 2.6-.32 3.93-.94l5.68-2.67-7.21-15.39-.22-.47-5.68 2.66c-2.3 1.08-3.84 2.78-4.46 4.92-.59 2.05-.32 4.38.79 6.75 1.08 2.32 2.67 3.93 4.6 4.67zm4.26-17.61l6.55 13.98-4.75 2.22c-2.02.95-3.99 1.1-5.69.44-1.68-.65-3.08-2.08-4.04-4.13-1-2.14-1.25-4.22-.73-6.02.54-1.85 1.89-3.33 3.91-4.27l4.75-2.22z"/><path d="M128.37 65.19c2.37 0 4.84-.6 7.36-1.78l12.12-5.68-11.21-23.91-.22-.47L124.4 39c-3.88 1.82-6.64 4.55-7.98 7.91-1.34 3.37-1.15 7.09.57 10.75 2.25 4.79 6.39 7.53 11.38 7.53zm-10.99-17.9c1.24-3.11 3.82-5.65 7.45-7.36l11.08-5.2 10.55 22.5-11.18 5.24c-7.53 3.53-14.18 1.51-17.35-5.26-1.59-3.39-1.78-6.82-.55-9.92zM120.67 71.56l-14.76-22.51-6.32 4.14 14.76 22.51 6.32-4.14zm-15.06-21.08l13.62 20.78-4.59 3.01-13.62-20.78 4.59-3.01zM95.83 90.61l.27-.24L89.55 73c-.19-.46-.37-.86-.54-1.22.35.22.73.45 1.16.7l16.23 8.95 6.25-5.42-25.53-13.03-.31-.16-6.36 5.52 9.42 27.45 5.96-5.18zM90.7 71.59c-1.14-.67-1.89-1.16-2.62-1.77l-.34-.29-.78.68.24.38c.51.81.9 1.59 1.4 2.8l6.29 16.68-4.54 3.94-8.69-25.34 5.31-4.6 23.86 12.18-4.54 3.94-15.59-8.6zM68.17 89.51l3.96 3.2-8.84 10.95 4.38 3.54 8.84-10.95 3.59 2.9-9.23 11.43 4.49 3.63L89.34 96.9 68.4 79.98 54.26 97.49l4.52 3.65 9.39-11.63zm-12.45 7.83l12.84-15.9 19.33 15.61-12.68 15.7-2.88-2.32L81.56 99l-5.2-4.2-8.84 10.95-2.77-2.24 8.84-10.95-5.57-4.5-9.39 11.63-2.91-2.35zM46.6 141.15c1.38.61 2.73.92 4.02.92 3.14 0 5.66-1.8 7.1-5.06l2.54-5.74-15.79-6.98-.23-.1-2.54 5.74c-2.02 4.61-.1 9.01 4.9 11.22zm-3.94-10.79l2.12-4.79 14.12 6.24-2.12 4.79c-1.81 4.09-5.55 5.47-9.76 3.61-4.5-1.99-6.17-5.77-4.36-9.85z"/><path d="M43.88 147.4c1.91.85 3.82 1.27 5.68 1.27 1.66 0 3.26-.34 4.75-1.02 3.14-1.42 5.73-4.26 7.47-8.21l5.41-12.24-24.14-10.67-.47-.21-5.37 12.14c-1.73 3.92-2.02 7.79-.82 11.2 1.2 3.43 3.79 6.11 7.49 7.74zm-5.71-18.51l4.95-11.19 22.72 10.04-4.99 11.29c-1.64 3.71-4.05 6.37-6.95 7.68-2.91 1.31-6.23 1.23-9.59-.26-3.43-1.52-5.83-3.98-6.93-7.13-1.11-3.15-.84-6.76.79-10.43zM33.32 157.48l4.95 1.16-3.21 13.69 5.48 1.28 3.21-13.69 4.49 1.05-3.35 14.3 5.62 1.32 5.07-21.66-25.69-6.02-.5-.12-5.13 21.91 5.66 1.32 3.4-14.54zm-7.82 12.45l4.66-19.89 24.18 5.66-4.6 19.64-3.6-.84 3.35-14.3-6.51-1.52-3.21 13.69-3.46-.81 3.21-13.69-6.97-1.63-3.41 14.55-3.64-.86zM28.54 186.57l5.08.3-.83 14.04 5.62.33.83-14.04 4.6.27-.86 14.66 5.76.34 1.31-22.2-26.86-1.58-1.32 22.46 5.8.34.87-14.92zm-5.59 13.59l1.2-20.39 24.79 1.46-1.19 20.14-3.7-.22.86-14.66-6.67-.39-.83 14.04-3.55-.21.83-14.04-7.15-.42-.88 14.91-3.71-.22zM32.61 222.44c.68 6 4.07 9.58 9.07 9.58.41 0 .82-.02 1.23-.07 5.33-.61 8.31-5.05 7.6-11.33l-1.65-14.53-26.74 3.04.85 7.51 8.87-1.01.77 6.81zm10.18 8.48c-4.98.55-8.48-2.73-9.15-8.6l-.89-7.83-8.87 1.01-.62-5.45 24.68-2.81 1.54 13.5c.65 5.74-1.91 9.64-6.69 10.18z"/><path d="M45.03 213.1l-8.82 1 .73 6.45c.18 1.57.7 2.77 1.56 3.57.73.68 1.7 1.04 2.81 1.04.21 0 .42-.01.63-.04 2.79-.32 4.18-2.35 3.81-5.58l-.72-6.44zm-.91 1.14l.62 5.43c.21 1.85-.12 4.11-2.9 4.43-1.08.12-1.96-.12-2.62-.73-.67-.63-1.09-1.62-1.24-2.93l-.62-5.42 6.76-.78zM34.25 246.09l4.88-1.45 4.01 13.49 5.4-1.6-4.01-13.49 4.42-1.31 4.19 14.08 5.54-1.65-6.34-21.33-25.8 7.67 6.41 21.57 5.57-1.66-4.27-14.32zm17.38-11.98l5.75 19.34-3.55 1.05-4.19-14.08-6.41 1.91 4.01 13.49-3.41 1.01-4.01-13.49-6.86 2.04 4.26 14.32-3.58 1.07-5.82-19.59 23.81-7.07zM66.55 270.5l-6.59-13.01-23.55 11.93-.46.23 3.42 6.75 8.62-4.36 2.13 4.21-6.15 9.24 3.81 7.51 6.75-10.52c2.6 2.33 5.99 2.78 9.13 1.19 2.22-1.12 3.71-2.82 4.29-4.9.65-2.35.18-5.13-1.4-8.27zm-12.21 10.35l-6.46 10.07-2.72-5.36 6.15-9.24-2.88-5.67-8.62 4.36-2.48-4.9 22.16-11.23 6.12 12.09c1.47 2.89 1.91 5.42 1.32 7.51-.51 1.79-1.81 3.27-3.76 4.26-2.97 1.5-6.03.98-8.39-1.43l-.44-.46z"/><path d="M58.42 278.12c.67 0 1.37-.18 2.06-.53 1.11-.56 1.81-1.37 2.08-2.39.29-1.11.06-2.43-.69-3.92l-3-5.92-7.46 3.78 3 5.93c1.03 2.02 2.38 3.05 4.01 3.05zm-.01-11.37l2.53 5c.64 1.25.84 2.32.61 3.18-.19.73-.71 1.32-1.55 1.74-1.92.97-3.49.27-4.68-2.08l-2.53-5 5.62-2.84zM66.71 301.83l10.34 12.28 4.58-3.86-10.33-12.29-4.59 3.87zm10.47 10.81l-9.01-10.69 3-2.53 9.01 10.69-3 2.53zM114.97 341.19c2.33-3.16 3.19-6.64 2.49-10.07-.69-3.42-2.9-6.58-6.37-9.14l-10.78-7.93-15.96 21.67 10.69 7.87c2.94 2.17 6.15 3.31 9.27 3.31 4.16.01 7.95-2.02 10.66-5.71zm-9.3 4.59c-3.33.4-6.79-.65-10.01-3.02l-9.85-7.25 14.73-20 9.94 7.32c3.29 2.43 5.37 5.36 6.01 8.48.64 3.11-.18 6.32-2.35 9.28-2.22 2.99-5.14 4.79-8.47 5.19z"/><path d="M107.83 325.43l-5.05-3.72-10.38 14.1 5.05 3.72c1.57 1.15 3.22 1.74 4.91 1.74.52 0 1.04-.06 1.54-.17 2.08-.46 4-1.81 5.55-3.91 3.12-4.23 2.5-8.73-1.62-11.76zm-.61.83c1.77 1.3 2.84 2.95 3.08 4.75.25 1.81-.33 3.73-1.68 5.55-1.4 1.9-3.11 3.12-4.94 3.52-1.88.41-3.82-.07-5.62-1.39l-4.22-3.11 9.15-12.43 4.23 3.11zM112.71 355.06l6.66 3.58 12.74-23.71-6.66-3.58-12.74 23.71zm17.99-19.71l-11.76 21.88-4.83-2.6 11.76-21.88 4.83 2.6zM153.71 343.94l-12.12 14.05c-.31.39-.58.73-.82 1.06.03-.42.05-.86.07-1.35l.1-18.53-7.75-2.9.77 29.02 7.89 2.95 19.61-21.4-7.75-2.9zm-18.74 20.62l-.71-26.78 5.63 2.1-.1 17.79c-.05 1.33-.11 2.22-.3 3.14l-.09.44.97.36.22-.39c.47-.83.97-1.55 1.79-2.57l11.64-13.5 5.63 2.11-18.1 19.75-6.58-2.45zM162.61 346.74l-4.77 26.49 21.9 3.94.25.04 1.03-5.72-14.71-2.65.9-5.01 13.85 2.49 1-5.54-13.85-2.49.82-4.54 14.46 2.6 1.02-5.68-21.65-3.9-.25-.03zm4.39 12.4l13.85 2.49-.63 3.5-13.85-2.49-1.27 7.05 14.71 2.65-.66 3.68-20.11-3.62 4.4-24.45 19.86 3.58-.66 3.64-14.46-2.6-1.18 6.57zM219.27 357.04c-1.58-1.4-3.74-2.03-6.26-1.83l-6.26.52 1.44 17.45 6.26-.52c2.46-.2 4.47-1.22 5.81-2.95 1.34-1.72 1.93-4.04 1.71-6.71-.21-2.52-1.14-4.58-2.7-5.96zm-10.13 15.03l-1.27-15.39 5.22-.43c2.22-.18 4.12.36 5.49 1.57 1.35 1.2 2.16 3.02 2.35 5.28.4 4.9-2.11 8.18-6.57 8.54l-5.22.43z"/><path d="M213.21 350.48l-13.34 1.1 2.21 26.83 13.23-1.09c8.72-.72 14.12-6.71 13.45-14.9-.66-7.97-6.76-12.64-15.55-11.94zm2.02 25.8l-12.2 1-2.04-24.76 12.31-1.01c8.28-.68 13.82 3.53 14.43 10.98.62 7.58-4.4 13.12-12.5 13.79zM242.66 366.88l-1.34-4.91 13.57-3.72-1.49-5.43-13.57 3.72-1.22-4.45 14.17-3.88-1.53-5.57-21.46 5.88 7.11 25.96 21.7-5.95-1.54-5.6-14.4 3.95zm-5.03 6.33l-6.57-23.96 19.46-5.33.98 3.57-14.17 3.88 1.77 6.45 13.57-3.72.94 3.43-13.57 3.72 1.89 6.9 14.41-3.95.99 3.61-19.7 5.4zM270.5 357.19l-2.17-4.6 12.73-5.99-2.4-5.09-12.73 5.99-1.97-4.17 13.29-6.26-2.46-5.23-20.13 9.48 11.46 24.35 20.36-9.58-2.48-5.26-13.5 6.36zm-3.87 7.1l-10.58-22.47 18.25-8.59 1.58 3.35-13.29 6.26 2.85 6.05 12.73-5.99 1.51 3.22-12.73 5.99 3.05 6.48 13.52-6.36 1.59 3.38-18.48 8.68zM294.94 325c-1.17-.11-2.41.3-3.71 1.22l-5.31 3.75 5.12 7.25 5.31-3.75c1.29-.91 2.09-1.95 2.38-3.09.29-1.15.02-2.36-.78-3.5-.79-1.12-1.83-1.77-3.01-1.88zm-3.65 10.77l-3.93-5.55 4.46-3.15c1.1-.78 2.12-1.13 3.02-1.04.88.08 1.64.57 2.26 1.45.63.89.84 1.78.62 2.64-.23.89-.89 1.73-1.97 2.5l-4.46 3.15z"/><path d="M289.89 321.54l-11.94 8.44 15.53 21.98 6.17-4.36-5.15-7.29 5.59-3.95c5.35-3.78 6.64-8.99 3.39-13.6-3.1-4.39-8.44-4.86-13.59-1.22zm9.6 13.97l-6.44 4.55 5.15 7.29-4.48 3.17-14.34-20.29 11.1-7.84c2.33-1.64 4.69-2.43 6.82-2.25 2.12.17 3.96 1.28 5.32 3.21 2.9 4.09 1.7 8.75-3.13 12.16zM320 323.61l-3.61-3.59 9.92-9.98-3.99-3.97-9.92 9.98-3.27-3.25 10.35-10.42-4.1-4.07-15.69 15.78 19.09 18.97 15.87-15.97-4.12-4.1L320 323.61zm4.84-13.56l-9.92 9.98 5.08 5.05 10.54-10.6 2.65 2.63-14.4 14.5-17.63-17.51 14.22-14.32 2.63 2.61-10.35 10.42 4.74 4.71 9.92-9.98 2.52 2.51zM338.97 279.83c-2.05-1.41-4.25-1.91-6.35-1.43-2.38.54-4.6 2.28-6.59 5.17l-8.29 12 21.93 15.15.21.14 4.3-6.22-7.95-5.49 2.68-3.88 11.05.99 4.79-6.93-12.46-.91c.8-3.4-.43-6.59-3.32-8.59zm2.15 8.91l-.19.62 11.93.87-3.41 4.94-11.05-.99-3.61 5.23 7.95 5.49-3.12 4.51-20.44-14.11 7.7-11.15c1.84-2.67 3.85-4.26 5.97-4.74 1.82-.41 3.73.03 5.54 1.28 2.73 1.89 3.73 4.82 2.73 8.05z"/><path d="M335.14 285.51c-1.02-.71-2.07-.94-3.1-.68-1.12.27-2.16 1.1-3.11 2.47l-3.77 5.46 6.88 4.75 3.77-5.46c2.47-3.58.64-5.63-.67-6.54zm-3.37 10.56l-5.17-3.57 3.19-4.61c.8-1.16 1.64-1.85 2.5-2.06.74-.18 1.5 0 2.27.53 1.77 1.22 1.9 2.93.41 5.1l-3.2 4.61zM347.89 266.26l5.58 2.18 5.84-14.96-5.58-2.18-5.84 14.96zm10.08-12.19l-5.08 13.02-3.65-1.42 5.08-13.02 3.65 1.42zM364.86 207.18c-3.94-.53-7.43.4-10.09 2.67-2.62 2.24-4.31 5.69-4.88 9.97l-1.78 13.27 26.68 3.58 1.76-13.16c.57-4.25-.24-8.05-2.34-10.99-2.11-2.95-5.34-4.8-9.35-5.34zm-15.59 25.02l1.64-12.24c.54-4.02 2.11-7.25 4.53-9.32 2.43-2.08 5.64-2.92 9.28-2.43 3.72.5 6.71 2.2 8.64 4.91 1.94 2.72 2.69 6.26 2.15 10.25l-1.63 12.13-24.61-3.3z"/><path d="M363.99 213.94c-5.19-.69-8.85 2.02-9.53 7.08l-.83 6.22 17.36 2.33.83-6.22c.67-4.98-2.4-8.68-7.83-9.41zm6.81 9.27l-.7 5.2-15.3-2.05.7-5.19c.29-2.15 1.19-3.86 2.62-4.94 1.47-1.12 3.46-1.56 5.74-1.25 2.4.32 4.32 1.26 5.54 2.71 1.2 1.43 1.69 3.35 1.4 5.52zM351.23 202.87l26.91-.43-.12-7.56-26.91.43.12 7.56zm.93-6.54l24.84-.4.09 5.49-24.84.4-.09-5.49zM348.72 171.92l18.14 3.93c.49.09.92.16 1.32.21-.38.17-.78.37-1.22.59l-16.33 8.77 1.16 8.19 24.82-14.36.3-.18-1.18-8.34-28.17-7 1.16 8.19zm3.88 20.03l-.84-5.95 15.68-8.42c1.19-.59 2-.96 2.91-1.24l.43-.13-.15-1.02-.44-.01c-.95-.01-1.82-.11-3.11-.34l-17.42-3.78-.84-5.96 26 6.46.99 6.96-23.21 13.43zM355.35 137.17l-5.34 1.77 4.42 13.35-4.38 1.45-4.61-13.94-5.48 1.81 6.99 21.12 25.05-8.29.49-.16-7.07-21.36-5.52 1.82 4.69 14.18-4.83 1.6-4.41-13.35zm9.41-2.94l6.42 19.39-23.58 7.81-6.34-19.15 3.51-1.16 4.61 13.94 6.35-2.1-4.42-13.35 3.37-1.12 4.42 13.35 6.8-2.25-4.69-14.18 3.55-1.18zM339.37 101.11c-2.11-.29-4.38.31-6.57 1.75-4.38 2.89-5.35 7.33-2.53 11.6l3.46 5.24 14.61-9.65-3.46-5.24c-1.39-2.11-3.3-3.39-5.51-3.7zm-5.34 17.16l-2.89-4.37c-2.46-3.73-1.6-7.62 2.24-10.16 1.96-1.29 4.05-1.85 5.85-1.59 1.91.26 3.57 1.39 4.79 3.25l2.89 4.37-12.88 8.5z"/><path d="M323.16 105.84c-.51 3.41.49 7.12 2.87 10.73l7.38 11.17 22.46-14.83-7.32-11.08c-4.82-7.3-12.67-9.16-19.53-4.63-3.32 2.19-5.35 5.18-5.86 8.64zm10.54 20.47L326.9 116c-2.24-3.39-3.17-6.85-2.71-10 .47-3.16 2.34-5.91 5.4-7.93 2.28-1.5 4.67-2.27 7.11-2.27 4.28 0 8.18 2.34 10.99 6.6l6.75 10.21-20.74 13.7zM322.61 86.39l-9.77-10.13-4.05 3.91 9.77 10.13-3.32 3.2-10.2-10.57-4.16 4.01 15.27 15.84.17.18 19-18.33.37-.36-15.45-16.02-.17-.18-4.18 4.03 10.38 10.76-3.66 3.53zm-2.55-16.85l14.18 14.71-17.88 17.25-14.01-14.52 2.67-2.57 10.2 10.57 4.81-4.64-9.77-10.13 2.56-2.47 9.77 10.13 5.15-4.97-10.37-10.76 2.69-2.6zM290.12 58.85l-3.33 4.54 11.34 8.32-2.73 3.72-11.84-8.69-3.42 4.65 17.93 13.16L314 62.86 296.07 49.7l-.2-.15-3.44 4.68 12.04 8.84-3.01 4.1-11.34-8.32zm15.8 4l-12.04-8.84 2.21-3.01 16.47 12.08-14.69 20.02-16.27-11.93 2.19-2.98 11.84 8.69 3.95-5.39-11.34-8.32 2.1-2.87 11.34 8.32 4.24-5.77zM267.43 51.05c-1.15.29-2.09 1.11-2.7 2.35-.61 1.23-.69 2.46-.22 3.54.46 1.08 1.42 1.98 2.85 2.68l5.83 2.87 3.93-7.96-5.82-2.88c-1.43-.68-2.73-.89-3.87-.6zm.39 7.64c-1.2-.59-1.99-1.32-2.35-2.16-.35-.81-.28-1.71.2-2.67.48-.98 1.17-1.59 2.03-1.81.25-.06.51-.09.78-.09.71 0 1.5.21 2.36.64l4.9 2.42-3.01 6.1-4.91-2.43z"/><path d="M258.47 50.52c-1.17 2.36-1.27 4.79-.29 7.03.97 2.22 2.94 4.12 5.71 5.49L277 69.5l11.68-23.67.23-.46-6.78-3.35-3.95 8.01-6.14-3.03c-2.87-1.41-5.64-1.84-8.03-1.23-2.4.62-4.31 2.26-5.54 4.75zm29.05-4.68l-10.99 22.27-12.18-6.01c-2.55-1.26-4.36-2.96-5.23-4.92-.86-1.95-.76-4.09.28-6.2 1.09-2.2 2.79-3.65 4.91-4.19.62-.16 1.27-.23 1.95-.23 1.66 0 3.46.46 5.31 1.38l7.07 3.49 3.95-8.01 4.93 2.42zM260.02 32.62l.14-.5-21.37-6.2-.24-.07-1.62 5.58 14.35 4.16-1.42 4.88-13.51-3.92-1.57 5.41 13.51 3.92-1.29 4.43-14.11-4.09-1.61 5.55 21.37 6.2 7.37-25.35zm-27.44 18.45l1.03-3.56 14.11 4.09 1.86-6.42-13.51-3.92.99-3.42 13.51 3.92 1.99-6.88-14.35-4.16 1.04-3.59 19.62 5.7-6.92 23.86-19.37-5.62zM215.16 45.2l6.61.68.86-8.32-6.6-.68c-1.66-.17-2.98.1-3.92.81-.86.65-1.36 1.64-1.5 2.92-.16 1.53.22 4.15 4.55 4.59zm.1-1.03c-2.62-.27-3.84-1.43-3.63-3.44.1-.99.47-1.73 1.09-2.2.72-.55 1.85-.75 3.18-.61l5.57.57-.65 6.25-5.56-.57z"/><path d="M213.28 49.55l14.51 1.5 2.77-26.76-7.52-.78-.99 9.61-4.69-.48-4.44-10.17-8.38-.87 5.19 11.36c-3.36.92-5.57 3.53-5.94 7.03-.57 5.4 2.89 8.88 9.49 9.56zm-8.47-9.45c.34-3.31 2.44-5.6 5.74-6.27l.64-.13-4.97-10.88 5.98.62 4.44 10.17 6.33.65.99-9.61 5.46.56-2.55 24.7-13.47-1.39c-8.15-.84-8.88-5.64-8.59-8.42zM170.93 34.73l.75 5.95 15.93-2.02-.75-5.95-15.93 2.02zm1.65 4.79l-.49-3.89 13.87-1.76.49 3.89-13.87 1.76z"/></svg>