<?xml version="1.0" encoding="utf-8"?>
<!-- Generator: Adobe Illustrator 23.0.0, SVG Export Plug-In . SVG Version: 6.00 Build 0)  -->
<svg version="1.1" id="Capa_1" xmlns="http://www.w3.org/2000/svg" xmlns:xlink="http://www.w3.org/1999/xlink" x="0px" y="0px"
	 viewBox="0 0 374 367" style="enable-background:new 0 0 374 367;" xml:space="preserve">
<style type="text/css">
	.st0{fill:#000;}
</style>
<g>
	<g>
		<path class="st0" d="M281.7,31.5l10,7.5c8.3,6.2,9.7,16.3,2.9,25.4c-6.8,9-17.2,11.1-25.6,4.8l-10-7.5L281.7,31.5z M262.9,61.3
			l7.3,5.5c8,6,16.1,3.3,21.7-4.1c5-6.6,6.1-15.5-2.3-21.8l-7.3-5.5L262.9,61.3z"/>
		<path class="st0" d="M321.9,97.3c-8.1,6.4-18.9,7.8-26.1-1.4c-6.6-8.4-3.6-18.6,4.9-25.2c8.4-6.6,19-7.3,25.9,1.6
			C333,80.4,330.5,90.5,321.9,97.3z M302.7,73.1c-6.8,5.4-10.3,14.2-4.7,21.3c6,7.7,14.8,6,21.9,0.5c6.9-5.4,10.1-13.8,4.5-21
			C318.4,66.2,309.5,67.8,302.7,73.1z"/>
		<path class="st0" d="M309.6,114.5l34.9-14.6l1.7,4c-6.1,8.9-20.2,29.8-23.1,33.6l0,0c4.9-2.4,10.1-4.5,15.7-6.9l15.8-6.6l1.1,2.7
			l-34.9,14.6l-1.5-3.7c5.9-8.6,20.7-30,23.5-34.1l0,0c-4.5,2.2-9.6,4.2-15.9,6.9l-16.2,6.8L309.6,114.5z"/>
		<path class="st0" d="M347.4,140.1c4.5,0.4,10.5-0.1,13.3-0.7l0.6,2.7c-4,0.7-10.4,0.8-13.4,0.3L347.4,140.1z"/>
		<path class="st0" d="M359.8,160.9l-1.4-12.6l2.7-0.3l3.1,28.2l-2.7,0.3l-1.4-12.7l-34.9,3.9l-0.3-3L359.8,160.9z"/>
		<path class="st0" d="M363,202.8l-2.4,13c-1.3,7.1-5.8,10.3-11.1,9.3c-4.4-0.8-6.8-4-7.1-7.2c-1.2,2.5-4.6,6.5-10.5,5.4
			c-7.4-1.4-9.7-7.5-8.5-14l2.4-13.2L363,202.8z M327.9,199.3l-1.9,10.5c-0.9,4.9,0.8,9.4,6.3,10.4c4.7,0.9,8.5-1.6,9.9-9.1l1.6-8.9
			L327.9,199.3z M344.8,211.8c-1.2,6.4,0.8,9.3,5.1,10.1c3.7,0.7,7.1-1.3,8.1-6.5l1.9-10.3l-13.3-2.4L344.8,211.8z"/>
		<path class="st0" d="M327.4,254.8L335,237l-14.6-6.2l-8.3,19.4l-2.3-1.5l9.2-21.7l34.8,14.8l-9.1,21.3l-2.5-1.1l7.9-18.6
			l-12.7-5.4l-7.5,17.7L327.4,254.8z"/>
		<path class="st0" d="M307.7,270.5c-4.6-2.4-9-1.7-13,3.1c-4.4,5.3-3.5,9.5-0.3,12.2c3.3,2.7,6.5,3,13.4-2.1
			c6.7-4.8,10.9-5.8,15.1-2.3c3.8,3.2,5,8.9-0.2,15.2c-5.3,6.4-11.5,5.8-15.3,3.2l1.9-2.3c3.7,1.9,7.6,1.8,11.4-2.8
			c3.5-4.2,3.5-8.1,0.2-10.8c-3.2-2.7-6-1.8-11.8,2.4c-8.9,6.5-13.1,4.9-16.6,2c-4.3-3.6-5.3-9.8,0.3-16.5
			c6.1-7.2,12.5-6.4,16.9-3.6L307.7,270.5z"/>
		<path class="st0" d="M303.2,316.5l-2.3,1.7L291,305l-18.2,13.5l9.8,13.2l-2.3,1.7l-22.5-30.4l2.3-1.7l11.1,15l18.2-13.5l-11.1-15
			l2.3-1.7L303.2,316.5z"/>
		<path class="st0" d="M242.5,310.2l5.6,13.1c0.1,0.3,0.4,0.6,0.5,0.7l21.3,15.6l-3.1,1.3c-6-4.4-16.4-12.1-19-14.1
			c-0.4,3.2-2.2,16-3.3,23.6l-3,1.3l4-26.6c0-0.2,0-0.5-0.2-0.8l-5.5-12.9L242.5,310.2z"/>
		<path class="st0" d="M175.5,338l-0.2-2.6L215,333l0.2,2.6L175.5,338z"/>
		<path class="st0" d="M145.4,355.7l-2.8-0.9l5-15.7l-21.6-6.9l-5,15.7l-2.8-0.9l11.5-36l2.8,0.9l-5.7,17.7l21.6,6.9l5.7-17.7
			l2.8,0.9L145.4,355.7z"/>
		<path class="st0" d="M93.6,311.4l16.5,10l8.3-13.6l-18-11l1.8-2.1l20.2,12.3l-19.7,32.3l-19.8-12l1.4-2.3l17.3,10.5l7.2-11.8
			l-16.5-10L93.6,311.4z"/>
		<path class="st0" d="M91.4,285.2l-9.7,10.3c-0.2,0.2-0.4,0.6-0.4,0.8l-5.7,25.8l-2.5-2.3c1.6-7.3,4.5-19.9,5.3-23.1
			c-3.1,0.9-15.5,4.4-23,6.4l-2.4-2.2l26-7.1c0.2-0.1,0.4-0.2,0.7-0.5l9.6-10.2L91.4,285.2z"/>
		<path class="st0" d="M84.9,269.9c-5.7,1.3-10.1,3.5-12.5,5.3l-1.7-2.1c3.7-2.5,9-4.6,12.7-5.1L84.9,269.9z"/>
		<path class="st0" d="M56.1,258.1c4-3.3,5.2-7.6,2.4-13.1c-3.1-6.2-7.4-7-11-5.2c-3.8,1.9-5.3,4.8-3.5,13.1c1.8,8,1,12.3-3.9,14.7
			c-4.4,2.2-10.2,1.1-13.8-6.2c-3.7-7.4-0.7-12.8,3.2-15.3l1.3,2.7c-3.2,2.6-4.7,6.2-2,11.6c2.4,4.9,6,6.4,9.8,4.5
			c3.7-1.9,4.1-4.8,2.5-11.8c-2.4-10.7,0.7-14,4.8-16c5-2.5,11.1-1,15,6.8c4.2,8.5,0.8,14-3.4,16.9L56.1,258.1z"/>
		<path class="st0" d="M36.3,201.6c6.2,0.3,11.7,3.6,13.5,11.4c2.5,10.6-4.6,18.1-14.9,20.6c-9.9,2.4-20.3-0.9-22.8-11.7
			c-1.9-7.9,1.4-13.7,7.3-16.3l0.7,2.8c-4.4,2.8-6.8,6.7-5.3,13c2.2,9.1,11.4,11,19.4,9.1c7.9-1.9,15.3-7.6,13-17
			c-1.4-6-5.3-8.3-10.2-9.1L36.3,201.6z"/>
		<path class="st0" d="M28.2,190.4l17.7,0.3l0,3L8,193l0.2-13.6c0.1-7.5,4.2-11.3,10.1-11.2c4.8,0.1,7.9,3,8.7,7.2
			c1-3.9,3.6-6.4,10-6.3l1.5,0c2.6,0,6.2,0.3,7.7-0.4l0,3c-1.6,0.7-4.7,0.5-7.9,0.4l-1,0c-6.2-0.1-8.8,1.7-8.9,8.9L28.2,190.4z
			 M25.5,190.3l0.1-9.1c0.1-6.6-2.3-9.8-7.3-9.8c-4.6-0.1-7.3,2.9-7.4,8.8l-0.2,9.9L25.5,190.3z"/>
		<path class="st0" d="M35.8,126.4c10,2.5,17.8,10.2,14.9,21.5c-2.6,10.3-12.4,14.2-23,11.6c-10.4-2.6-17.4-10.6-14.6-21.5
			C15.7,128,25.1,123.7,35.8,126.4z M28.4,156.4c8.4,2.1,17.6-0.5,19.8-9.3c2.4-9.5-4.4-15.4-13-17.6c-8.5-2.2-17.2,0.5-19.4,9.3
			C13.3,148.2,20.1,154.3,28.4,156.4z"/>
		<path class="st0" d="M24,108.1l1.4-2.6l31.1,16.3l9.4-18l2.1,1.7l-10.5,20.1L24,108.1z"/>
		<path class="st0" d="M41.6,77.8l1.8-2.3l27.3,22l12.7-15.8l1.8,2.1L71,101.5L41.6,77.8z"/>
		<path class="st0" d="M76.6,41.1L87,34.3c8.7-5.7,18.6-3.6,24.9,5.8c6.2,9.4,4.7,19.9-4.1,25.7l-10.4,6.9L76.6,41.1z M98.4,68.8
			l7.6-5c8.3-5.5,8.6-14.1,3.4-21.9C104.8,35,96.9,31,88.1,36.8l-7.6,5L98.4,68.8z"/>
		<path class="st0" d="M152.2,25.5c3.2,9.8,1,20.4-10.1,24.1c-10.1,3.3-18.7-2.9-22.1-13.2c-3.4-10.2-0.4-20.3,10.3-23.9
			C140.1,9.3,148.7,15,152.2,25.5z M122.9,35.3c2.7,8.3,9.9,14.5,18.5,11.7c9.3-3.1,10.7-11.9,7.9-20.5c-2.8-8.4-9.6-14.2-18.3-11.4
			C121.7,18.2,120.2,27.2,122.9,35.3z"/>
		<path class="st0" d="M170.5,42.2L159.4,4.6l3-0.1c2.7,9,8.8,29.8,9.7,34.2l0.1,0c0.6-3.5,6.5-24.5,9-34.6l3.2-0.1
			c2.6,9.2,9.1,31.3,9.7,34.2l0.1,0c1.1-5.4,7.1-25.4,9.5-34.5l3-0.1l-10.9,38l-3.3,0.1c-2.6-8.9-8.9-30.6-9.6-33.9l-0.1,0
			c-0.9,4.9-6.4,24.7-8.9,34.2L170.5,42.2z"/>
		<path class="st0" d="M211.1,43.5l10.5-36.3l4.1,1.2c3.1,10.4,10.5,34.5,11.7,39.1l0.1,0c1.2-5.3,2.8-10.7,4.5-16.6l4.8-16.4
			l2.9,0.8l-10.5,36.3l-3.8-1.1c-3-10-10.3-35-11.8-39.7l-0.1,0c-1.1,4.8-2.7,10.1-4.6,16.7l-4.9,16.9L211.1,43.5z"/>
	</g>
</g>
</svg>
