<svg xmlns="http://www.w3.org/2000/svg" xmlns:xlink="http://www.w3.org/1999/xlink" version="1.1" id="Layer_1" x="0px" y="0px" viewBox="0 0 930.08 702.82" style="enable-background:new 0 0 930.08 702.82;" xml:space="preserve"><style type="text/css">
	.st0{fill:#FFADA9;}
	.st1{fill:#D65B56;}
	.st2{fill:#100F5B;}
	.st3{fill:#060335;}
	.st4{fill:#3B3BB2;}
	.st5{fill:#D86464;}
	.st6{fill:#FFFFFF;}
	.st7{fill:#669EAD;}
	.st8{fill:#0F3B5B;}
	.st9{fill:#082135;}
	.st10{fill:#B74848;}
	.st11{fill:#AA3939;}
	.st12{fill:#5A8C91;}
	.st13{fill:#203759;}
</style><g><g><g><path class="st0" d="M69.12,281.48c-0.53-0.53-1.05-0.89-1.49-1.05c-2.74-0.98-5.29,1.06-7.25,2.73     c-2.8,2.38-5.49,4.88-8.31,7.23c-6.39,5.33-12.81,10.93-17,18.23c-3.01,5.25-8.27,21.24-10.06,32.37     c7.27,4.61,18.44,15.02,33.81,14.61l0.03-0.02c5.43-0.13,10.76,1.27,15.96,3.77c-0.21,0.33-0.43,0.68-0.65,1.04     c-0.06,0.09-0.11,0.16-0.15,0.22c-0.19,0.31-0.39,0.63-0.59,0.95c-2.11,3.38-4.22,7.23-5.23,10.73c4.2,4.69,8.73,5.75,8.73,5.75     l5.54-7.65l3.15-4.32l10.77-14.85l1.92-2.65c-2.85-0.76-5.69-1.53-8.56-2.32c-0.7-0.17-1.38-0.35-2.06-0.53     c-2.75-0.75-5.53-1.5-8.29-2.24c-3.64-0.98-7.31-1.97-10.96-2.97c-6.23-1.69-7.92-8.77-9.87-14.25     c-1.24-3.44-3.45-8.59-1.98-12.25c1.43-3.52,4.76-6.31,7.64-8.65C76.32,295.55,72.52,284.94,69.12,281.48z"/><path class="st1" d="M74.17,360.36c-0.05,0.08-0.09,0.15-0.14,0.23c-0.19,0.31-0.39,0.63-0.59,0.95     c-2.11,3.38-4.22,7.23-5.23,10.73c-3.23-3.59-7.65-7.35-13.34-9.43c-13.07-4.79-27.25-5.18-29.95-11.79     c-0.23-0.56-0.24-2.58-0.15-4.73l0.03-0.78l0.07-1.53l0.04-0.73c0.04-0.96,0.09-1.79,0.11-2.31     c7.27,4.61,18.44,15.02,33.81,14.61l0.03-0.02c5.43-0.13,10.76,1.27,15.96,3.77C74.61,359.67,74.39,360.02,74.17,360.36z"/></g><path class="st2" d="M320.12,448.36l-16.29,58.03c0,0-55.74-31.07-100.31-54.52c-22.91-12.04-42.88-22.06-50.81-24.83    c-13.18-4.58-42.37-17.36-60.38-34.26c-13.59-12.78-28.55-19.54-28.65-20.5c-0.09-0.97,4.43-7.11,9.55-13.7    c6.54-8.43,14.06-17.6,14.06-17.6C200.35,389.93,320.12,448.36,320.12,448.36z"/><path class="st3" d="M203.51,451.87c-22.91-12.04-42.88-22.06-50.81-24.83c-13.18-4.58-42.37-17.36-60.38-34.26    c-13.59-12.78-28.55-19.54-28.65-20.5c-0.09-0.97,4.43-7.11,9.55-13.7c0,0,20.56,3.79,36.59,14.78    c16.03,10.99,29.46,24.59,47.21,29.38c17.77,4.78,58.91,21.08,68.45,29.02C233.28,438.25,211.64,448.4,203.51,451.87z"/><path class="st2" d="M276.48,510.77c0,0,50.78,61.94,81.83,108.71c24.08,36.28,45.29,45.43,67.51,55.5    c50.8,23.03,21.89-86.73,21.89-86.73l-101.76-77.48l-49.97-28.31L276.48,510.77z"/><path class="st3" d="M274.42,501.92c2.62-0.13,11.79,10.18,14.15,12.24c5.45,4.75,10.84,9.56,16.03,14.59    c9.94,9.65,18.33,20.34,26.57,31.41c12.36,16.61,25.95,32.86,37.36,50.02c10.55,15.88,48.74,59.91,67.29,67.26    c17.43,6.91-6.31-74.26-6.31-74.26l-45.92-63.08l-60.65-33.71l-18.19-4.47C304.74,501.92,274.42,501.92,274.42,501.92z"/><g><path class="st0" d="M128.78,349.33c-0.67-0.48-1.31-0.77-1.82-0.86c-3.17-0.54-5.56,2.16-7.38,4.34     c-2.6,3.12-5.05,6.35-7.67,9.45c-5.95,7.01-11.87,14.33-15.05,23.08c-2.28,6.29-4.97,24.69-4.81,37.15     c8.79,3.64,22.93,12.85,39.59,9.49l0.03-0.03c5.89-1.17,11.96-0.66,18.1,1.08c-0.17,0.4-0.34,0.83-0.51,1.25     c-0.05,0.11-0.09,0.2-0.12,0.27c-0.15,0.37-0.3,0.76-0.46,1.15c-1.66,4.08-3.22,8.68-3.66,12.67c5.46,4.31,8.6,8.7,8.6,8.7     l6.58-13.48l2.6-5.3l8.91-18.22l1.59-3.25c-3.24-0.29-6.49-0.58-9.76-0.9c-0.79-0.05-1.57-0.12-2.35-0.19     c-3.14-0.29-6.3-0.59-9.45-0.87c-4.15-0.38-8.33-0.76-12.5-1.15c-7.11-0.65-10.29-8.05-13.45-13.64     c-2.01-3.51-5.39-8.7-4.48-12.96c0.89-4.1,3.98-7.78,6.67-10.86C139.29,363.28,133.14,352.45,128.78,349.33z"/><path class="st1" d="M149.25,434.26c-0.04,0.09-0.07,0.19-0.11,0.28c-0.15,0.37-0.3,0.76-0.46,1.15     c-1.66,4.08-3.22,8.68-3.66,12.67c-4.19-3.3-9.73-6.55-16.31-7.73c-15.14-2.74-30.65-0.47-34.85-7.15     c-0.36-0.57-0.75-2.76-1.06-5.12l-0.12-0.85l-0.21-1.68l-0.09-0.8c-0.14-1.05-0.25-1.96-0.32-2.54     c8.79,3.64,22.93,12.85,39.59,9.49l0.03-0.03c5.89-1.17,11.96-0.66,18.1,1.08C149.6,433.42,149.43,433.85,149.25,434.26z"/></g><path class="st4" d="M512.46,609.83c-1.06,6.24-5.28,12.33-8.14,17.83s-6.16,10.83-9.71,15.92c-2.57,3.69-5.26,7.38-8.15,10.6    c-3.74,4.18-7.98,8.17-12.52,11.66c-10.37,8.02-22.27,13.46-33.25,12.63c-9.02-0.67-17.82-8.54-24.94-15.77    c-14.05-14.25-23.73-34.8-36.36-51.31c-52.48-68.59-47.76-92.25-80.77-96.19c-32.87-3.93-87.63-26.71-103.03-35.58    c-11.81-6.81-35.53-17.07-47.39-22.08c-4.66-1.96-7.35-8.59-6.11-15.04c0.43-2.28,0.95-4.79,1.5-7.44    c0.23-1.12,0.48-2.23,0.71-3.32c2.27-10.14,4.99-18.84,6.22-19.39c2.41-1.11,8.87,0.94,11.31,1.31c8.61,1.3,17.19,2.73,25.77,4.17    c20.89,3.5,41.76,7.14,62.65,10.65c6.24,1.05,12.48,2.1,18.74,3.05c12.02,1.82,24.18,2.52,36.26,3.9    c13.03,1.49,25.1,3.26,35.38,11.47c27.8,22.22,53.94,46.32,80.31,69.99c8.6,7.72,17.14,15.49,25.64,23.31    c15.4,14.18,30.7,28.49,45.37,43.33c5.73,5.79,11.4,11.66,16.69,17.82c2.1,2.45,4.37,4.45,3.87,7.97    C512.52,609.49,512.49,609.66,512.46,609.83z"/><path class="st2" d="M473.96,665.85c-10.37,8.02-22.27,13.46-33.25,12.63c-9.02-0.67-17.82-8.54-24.94-15.77    c-14.05-14.25-23.73-34.8-36.36-51.31c-52.48-68.59-47.76-92.25-80.77-96.19c-32.87-3.93-87.63-26.71-103.03-35.58    c-11.81-6.81-35.53-17.07-47.39-22.08c-4.66-1.96-7.35-8.59-6.11-15.04c0.43-2.28,0.95-4.79,1.5-7.44    c0.23-1.12,0.48-2.23,0.71-3.32c0,0,34.19,12.33,54.75,27.26c31.4,22.8,72.22,21.55,108.98,24.83c8.33,0.74,15.18,2.48,20.45,9.55    c12.34,16.55,17.58,39.43,27.88,57.45c6.32,11.06,15.03,20.66,25.1,28.42c9.96,7.67,21.71,12.8,31.34,20.92    c14.74,12.45,25.99,30.26,31.42,47.41C448.01,659.47,459.5,665.23,473.96,665.85z"/><g><path class="st5" d="M685.5,215.06c-6.23-1.75-14.64,0.45-21.4,2.92c-0.93,0.37-1.83,0.68-2.67,1.05     c-4.86,2.05-8.27,3.98-8.27,3.98s-9.23,7.67-12.67,11.64s-20.57,2.86-22.38,5.44c-1.76,2.62,1.93,7.51,0.96,9.91     c-1.18,3.21-6.93,5-3.77,7.35c3.14,2.36,5.16,10.15,4.97,12.85c-0.2,2.6-6.95,8.5-8.41,9.25c-1.42,0.69-9.18-7.71-11.12-5.92     c0,0-1.06,1.07-1.28,1.98c-0.77,3.33-6.26,4.34-7.25,7.67c-0.38,1.35,0.6,3.72,1.22,4.99c1.88,3.89,8.57,6.95,12.04,9.14     c2.81,1.76,5.65,3.47,8.48,5.19c0.09,0.06,0.19,0.11,0.28,0.16c1.41,0.82,3.23,1.54,4.6,2.52c0,0,0.01,0.01,0.03,0.02     c1.5,1.09,2.44,2.49,1.76,4.65c-0.51,1.58-1.17,3.13-1.94,4.62c-0.9,1.76-1.97,3.43-3.15,5c-3.2,4.26-7.74,7.56-12.84,9.35     c-1.01,0.36-3.02-0.74-4.7-1.81c-2.14-1.36-3.74-2.64-2.13-0.79c0.58,0.7,1.25,1.35,1.97,1.98c3.86,3.33,9.39,5.81,13.35,8.55     c0.02,0.01,0.05,0.03,0.07,0.05c1.54,1.07,3.05,2.16,4.64,3.29c0.49,0.35,0.97,0.7,1.46,1.06c5.53,4.01,10.94,8.2,16.5,12.19     c2.06,1.54,8.26,9.67,11.19,8.28c1.63-0.79,1.36-7.29,1.79-9.01c0.98-3.43,2.53-6.68,3.99-9.93c2.58-5.8,5.68-11.38,9.18-16.62     c0.11-0.09,0.17-0.14,0.22-0.3c3.51-5.04,7.69-9.07,12.37-12.98c14.44-11.97,36.11-7.47,46.38-46.27     C724.22,246.55,697.55,218.3,685.5,215.06z"/><g><path class="st6" d="M601.59,271.05c0,0,1.64-3.66,3.06-2.81s8.43,6.43,8.43,6.43l-2.42,2.22l-8.52-5.26L601.59,271.05z"/><path class="st6" d="M612.09,253.44c0,0-2.35,1.35-1.21,2.85c1.13,1.5,6.63,10.08,7.03,10.29c0.4,0.21,2-0.45,2.83-1.79      S612.09,253.44,612.09,253.44z"/><g><path class="st0" d="M679.16,226.36c-0.32,0.56-0.82,0.99-1.43,1.23c-12.81,5.09-24.34,13.54-30.8,25.72       c-3.29,6.21-5.59,12.47-10.22,17.97c-4.61,5.48-10.34,10.05-16.82,13.28c-6.37,3.19-13.75,5.08-20.83,6.36       c-5.43,0.98-6.27-4.53-8.79-9.39c-0.61-1.25-1.05-2.76-0.67-4.11c0.98-3.33,6.47-4.34,7.24-7.67c0.23-0.91,1.28-1.98,1.28-1.98       c1.94-1.8,9.7,6.62,11.12,5.92c1.47-0.75,8.22-6.65,8.41-9.25c0.19-2.7-4.3-9.56-7.45-11.91c-1.29-0.97-0.66-2,0.62-3.11       c0.01-0.01,0.03-0.02,0.04-0.02c1.83-1.57,4.91-3.28,5.61-5.15c0.22-0.54,0.2-1.19,0.06-1.92c-0.47-2.54-2.39-5.95-1.03-8       c1.81-2.57,18.93-1.47,22.38-5.44c3.13-3.61,11.04-10.29,12.45-11.46c0.14-0.12,0.3-0.22,0.47-0.32       c0.77-0.42,3.29-1.77,6.74-3.28c0.81-0.36,1.76-0.34,2.58,0.04l17.59,8.18C679.38,222.83,680.06,224.83,679.16,226.36z"/><path class="st7" d="M673.07,227.62"/><path class="st8" d="M734.91,253.11c-0.2,0.63-0.41,1.27-0.6,1.91c-1.66,5.48-2.79,11.11-3.66,16.78       c-0.73,4.77-0.67,10.17-3.61,14.22c-2.98,4.1-8.3,6.05-12.96,7.73c-3.16,1.14-6.38,2.25-9.23,4.01       c-3.11,1.92-5.19,4.19-8.76,5.48c-2.7,0.99-5.48,1.82-7.58,3.85c-5.38,5.18-12.25,12.88-19.91,12.86       c4.11-4.4,3.7-13.66,5.9-19.26c1.63-4.14,5.95-6.59,8.18-10.43c2.94-5.07,1.86-11.83,4.94-16.82c1.46-2.38,3.91-4.53,3.69-7.37       c-0.31-3.68-5.02-5.58-8.74-5.13c-5.76,0.71-10.31,4.68-15.11,7.75c-0.56,0.37-1.18,0.73-1.87,0.7       c-1.5-0.05-2.32-1.83-2.38-3.3c-0.2-4.84,3.68-9.07,3.32-13.91c-0.15-1.9-0.93-3.85-0.38-5.64c0.8-2.62,3.97-3.64,5.68-5.77       c2.27-2.87,1.42-6.91-0.26-10.46c-0.35-0.75-0.74-1.49-1.15-2.19c-2.51-4.27-5.98-8.62-10.85-9.63       c-3.21-0.65-6.44,0.28-9.57,1.05c-3.13,0.76-6.54,1.37-9.58,0.1c-7.33-3.03-3.98-7.92,0.71-11.29       c6.15-4.41,13.11-7.05,18.92-11.95c7.91-6.66,15.58-0.43,24.33,1.18c7.62,1.4,14.69-0.74,20.54,5.82       c4.28,4.79,6.33,11,10.54,15.88c2.97,3.44,6.39,6.51,10.15,9.1c3.64,2.51,8.08,4.24,10.33,8.27       C738.77,241.71,736.65,247.75,734.91,253.11z"/><path class="st9" d="M734.91,253.11c-0.2,0.63-0.41,1.27-0.6,1.91c-1.71,5.65-2.93,11.46-3.64,17.35       c-0.58,4.78-0.92,9.86-3.72,13.73c-5.6,7.77-18.17,7.16-25.01,13.88c-1.64,1.62-3.71,2.49-5.84,3.26       c-2.7,0.99-5.48,1.82-7.58,3.85c-5.38,5.18-12.25,12.88-19.91,12.86c4.11-4.4,3.7-13.66,5.9-19.26       c1.04-2.65,3.15-4.85,5.07-6.88c2.19-2.31,3.59-4.72,4.46-7.82c1.21-4.28,1.46-9.04,3.86-12.87c0.94-1.5,2.21-2.8,2.93-4.41       c2.84-6.31-5.3-8.3-9.9-7.4c-5.18,1.01-9.23,4.63-13.48,7.39c-0.56,0.37-1.18,0.73-1.87,0.7c-1.5-0.05-2.32-1.83-2.38-3.3       c-0.2-4.84,3.68-9.07,3.32-13.91c-0.15-1.9-0.93-3.85-0.38-5.64c0.8-2.62,3.97-3.64,5.68-5.77c2.27-2.87,1.42-6.91-0.26-10.46       c0,0,16.82-4.12,36.21,3c6.49,2.38,14.22,0.69,21.67-2.62c2.58,1.6,5.05,3.37,6.5,5.96       C738.77,241.71,736.65,247.75,734.91,253.11z"/></g><path class="st1" d="M618.52,246.17c-0.6,1.09-6.08,2.19-7.66,3.23c1.83-1.57,4.91-3.28,5.61-5.15c0.22-0.54,0.2-1.19,0.06-1.92      C616.54,242.33,619.12,245.08,618.52,246.17z"/></g><path class="st10" d="M617.34,341.16c-0.49-0.36-0.97-0.71-1.46-1.06c-1.58-1.13-3.1-2.22-4.64-3.29     c-0.02-0.02-0.05-0.04-0.07-0.05c-3.96-2.74-9.49-5.22-13.35-8.55c-0.72-0.62-1.4-1.28-1.97-1.98c-1.61-1.86,0-0.57,2.13,0.79     c1.68,1.06,3.68,2.17,4.7,1.81c5.09-1.79,9.63-5.09,12.84-9.35c1.18-1.57,2.25-3.24,3.15-5c0.78-1.49,1.43-3.04,1.94-4.62     c0.69-2.16-0.26-3.56-1.76-4.65c0.61,0.41,7.16,4.09,14.41,8.77C638.91,317.61,625.85,334.46,617.34,341.16z"/><path class="st11" d="M633.27,313.98c0,0-1.11,1.26-4.49,2.67c-1.84,0.76-9.29,2.59-12.39,1.64c0.78-1.49,3.72-6.85,4.23-8.43     c0.69-2.16-0.26-3.56-1.76-4.65C619.47,305.61,626.02,309.3,633.27,313.98z"/></g><g><path class="st0" d="M523.2,55.57c-1.11,3.27-2.48,6.55-2.85,10.01c-0.05,0.45-0.11,0.9-0.14,1.33c-0.46,4.19-0.9,7.76-2.92,11.7     c-2.7,5.24-5.82,10.25-8.84,15.31c-2.24,3.74-3.87,8.44-3.45,13.03c0.42,4.62,0.38,5.57-0.16,9.22     c-0.41,2.85-0.63,5.43-0.71,6.43c-0.03,0.28-0.04,0.43-0.04,0.43l-0.32,2.57l-2.77-0.68l-15.78-3.9l-3.17-0.78     c0,0-0.05-0.84-0.14-2.16c-0.26-3.77-0.83-11.38-1.3-13.77c-0.65-3.23-4.35-8.05-3.54-17.06c0.8-9.01,1.07-14.65,1.38-18.51     c0.3-3.49-4.15-17.8-3.73-23.54c0.03-0.63,0.13-1.16,0.32-1.55c1.78-4.02,4.76-4.19,6.52-0.65s6.28,11.42,6.76,16.94     c0.26,3,0.34,6.57,1.03,9.18c0.17,0.63,0.37,1.21,0.62,1.71c0.62,1.23,1.51,1.99,2.87,1.94c6.28-0.26,9.25-3.52,12.59-8.54     c1.44-2.17,2.67-4.45,3.75-6.82c1.05-2.33,1.94-4.73,2.7-7.18c0.8-2.58,1.71-5.19,2.19-7.88c0-0.01,0-0.03,0-0.03     c0.14-0.78,0.25-1.55,0.3-2.34c0.28-4.08-1.49-6.31-2.67-9.96c-0.55-1.66-0.66-3.35,0.47-4.72c3.5-4.19,8.72,5.22,9.73,7.93     c1.63,4.44,2.91,9.56,3.54,14.27C525.77,49.96,523.96,53.32,523.2,55.57z"/></g><path class="st0" d="M904.18,260.73c-0.59,2.12-1.46,4.12-2.69,5.99c-6.16,9.41-9.66,22.51-18.18,30.1    c-5.05,4.49-11.42,12.38-11.42,12.38l-6.67,6.19l-0.53,0.49l-0.54,0.5l-2.34,2.19l-1.83-1.5l-14.36-11.79    c0,0,8.47-13.33,8.48-13.34c3.14-4.91,7.73-5.26,6.8-12.45c-0.68-5.23-1.86-10.55-1.24-15.83c0.62-5.31,4-9.54,4.61-14.92    c0.16-1.37,0.2-2.77,0.63-4.07c1.53-4.62,6.99-2.44,6.1,1.88c-0.83,4.04-4.53,16.56,4.15,12.22c6.98-3.86,13.17-9.91,17.09-16.85    c1.16-2.04,3.17-8.62,5.55-12.07c0.79-1.15,1.62-1.95,2.48-2.13c2.87-0.61,3.75,4.83,3.87,6.61c0.12,1.59,0.28,3.27,0.43,4.97    v0.01C905.28,246.34,906.08,254.04,904.18,260.73z"/><path class="st12" d="M868.86,316.98c0,0-87.92,89.97-106.41,96.78c-12.84,4.73-74.33,0.74-111.82,0.76    c-5.61,0-16.01,7.82-18.75,12.7c-0.01,0.03-3.94,1.28-3.96,1.3c-10.01,17.88-15.84,32.46-27.33,49.36    c-19.38,28.51-38.74,57-58.12,85.5c-1.77,2.58-30.72,42.8-29.89,43.96c-0.36-0.34-6.18-5.91-15.23-14.58    c-2.38-2.28-4.98-4.77-7.77-7.43c-38.86-37.19-94.69-91.91-94.69-91.91s73.79-53.37,121.62-126.99c0,0,0.01-0.01,0.03-0.04    c1.51-1.78,2.52-3.85,3-6.01c0.8-3.61,0.18-7.5-1.95-10.76l-43.23-68.66c-2.79-3.61-3.19-7.69-3.3-12.09    c-0.2-8.22-2.1-19.9-2.01-21.68l7.52-129.67c0.04-0.8,0.78-1.44,1.67-1.44h21.74c1.46,0,2.94,0.04,4.41,0.01    c0.75-0.01,1.5-0.04,2.24-0.09c0.57-0.04,1.3-0.2,1.74,0.25c0.18,0.18,0.24,0.45,0.24,0.71c-0.01,0.74-0.03,1.49,0.03,2.23    c0.07,0.99,0.14,1.98,0.21,2.98c0.17,2.33,0.34,4.66,0.51,6.99c0.22,3.03,0.45,6.06,0.67,9.1c0.28,3.6,0.54,7.19,0.82,10.8    c0.32,4.03,0.62,8.06,0.94,12.09c0.33,4.33,0.67,8.65,1.01,12.99c0.36,4.51,0.72,9,1.09,13.49c0.37,4.53,0.74,9.05,1.12,13.58    c0.38,4.41,0.76,8.84,1.15,13.27c0.37,4.19,0.75,8.36,1.15,12.55c0.36,3.81,0.72,7.63,1.11,11.43c0.33,3.31,0.69,6.61,1.05,9.92    c0.3,2.67,0.62,5.33,0.97,8.01c0.13,0.97,0.28,1.96,0.42,2.95c0.28,1.86,0.53,3.82,1.29,5.61c0.86,2,2.46,3.37,4.02,4.93    c1.07,1.07,2.15,2.12,3.25,3.16c2.79,2.63,5.65,5.2,8.54,7.75c14.33,12.63,28.8,26.31,45.35,36c17,9.94,35.26,17.43,52.28,27.33    c14.84,8.63,31.58,14.01,48.67,15.61c18.66,1.75,37.37,4,56.14,4.3c5.63,0.09,13.05,0.8,18.31-1.72    c13.01-6.22,90.18-66.36,90.18-66.36l16.1,16.95L868.86,316.98z"/><path class="st1" d="M904.18,260.73c-0.59,2.12-1.46,4.12-2.69,5.99c-6.16,9.41-9.66,22.51-18.18,30.1    c-5.05,4.49-11.42,12.38-11.42,12.38l-6.67,6.19l-0.53,0.49l-1.38-4.74c3.94-4.08,7.98-8.05,11.97-12.08    c2.84-2.87,5.86-5.56,8.62-8.51c2.88-3.07,4.39-6.72,6.12-10.48c2.42-5.27,5.53-10.02,8.38-15.05c2.27-3.99,3.34-8.8,4.29-13.26    c0.87-4.1,1.56-8.27,1.88-12.45C905.28,246.34,906.08,254.04,904.18,260.73z"/><path class="st5" d="M485.78,116.09c-0.11,1.92-0.3,3.56-0.55,4.93l-3.17-0.78c0,0-0.05-0.84-0.14-2.16    c-0.26-3.77-0.83-11.38-1.3-13.77c-0.65-3.23-4.35-8.05-3.54-17.06c0.8-9.01,1.07-14.65,1.38-18.51c0.3-3.49-4.15-17.8-3.73-23.54    c-0.04,0.48,0.56,1.41,0.73,1.87c0.3,0.79,0.59,1.59,0.86,2.4c1.26,3.7,2.13,7.51,2.92,11.34c0.4,1.95,0.78,3.9,1.17,5.85    c0.47,2.35,1.22,4.53,1.1,6.95c-0.13,2.55-0.81,5.02-1.4,7.49c-0.9,3.78-1.29,7.59-0.26,11.37c0.72,2.64,2.07,5.07,2.99,7.64    C484.63,105.23,486.07,110.63,485.78,116.09z"/><path class="st13" d="M519.54,360.39c0.8-3.61,0.18-7.5-1.95-10.76c-6.06-9.3-12.13-18.59-18.19-27.89    c-4.6-7.06-9.27-14.07-13.63-21.27c-6.88-11.37-15.33-19.88-17.03-33.71c-1.36-11.11,0.72-22.14,1.1-33.23    c0.29-8.58,1.01-17.18,1.51-25.75c1.18-20.36,2.36-40.71,3.54-61.07c0.56-9.73,1.21-19.45,1.69-29.18    c0.04-0.8,0.78-1.44,1.67-1.44h7.52c0,0,1.83,61.26-2.03,82.69c-3.86,21.45-7.25,62.76-0.64,74.73    c9.54,17.27,20.32,33.77,31.07,50.27C520.51,333.51,524.67,349.14,519.54,360.39z"/><path class="st13" d="M868.86,316.98c0,0-87.92,89.97-106.41,96.78c-14.94,5.5-31.89,3.82-47.51,4.59    c-12.55,0.62-25.12,0.72-37.66,1.08c-11.45,0.33-23.81-2.41-34.56,2.83c-13.56,6.61-18.07,22.63-26.22,34.15    c-5.15,7.27-10.89,14.1-15.9,21.47c-19.38,28.51-38.74,57-58.12,85.5c-1.77,2.58-29.14,45.11-30.4,48.25    c-0.36-0.34-5.66-10.21-14.71-18.87c-2.38-2.28-4.98-4.77-7.77-7.43c4.4-19.66,8.33-31.06,23.13-45.23    c8.56-8.2,21.4-25.93,27.44-36.24c7.59-12.95,10.61-27.73,18.64-40.51c5.18-8.24,11.76-15.52,19.06-21.92    c7.87-6.89,16.91-12.19,25.18-18.56c5.12-3.95,9.96-8.39,13.69-13.7c3.84-5.46,6.44-11.9,11.59-16.38    c7.89-6.86,18.57-3.58,27.3-0.33c12.83,4.77,25.93,6.67,39.59,6.59c12.15-0.07,24.49,0.77,36.63-0.83    c17.91-2.36,31.16-10.85,45.06-21.79c17.81-14.02,38.09-24.4,56.12-38.08c10.85-8.23,19.86-18.47,30.32-27.2L868.86,316.98z"/></g></g></svg>