<svg xmlns="http://www.w3.org/2000/svg" xmlns:xlink="http://www.w3.org/1999/xlink" version="1.1" x="0px" y="0px" viewBox="0 0 58 58" style="enable-background:new 0 0 58 58;" xml:space="preserve"><style type="text/css">
	.st0{display:none;}
	.st1{display:inline;fill:#03030C;}
	.st2{fill:#5C6AFF;}
	.st3{fill:#FFFFFF;}
</style><g id="Layer_3" class="st0"><rect class="st1" width="58" height="58"/></g><g id="Layer_2"><circle class="st2" cx="29" cy="29" r="26.5"/><g><path class="st3" d="M46.5,30.9c0-0.4-0.1-0.9-0.3-1.3l-6.8-14.3c-0.3-0.7-0.9-1.2-1.5-1.5c0,0-0.1,0-0.1-0.1    c-0.1,0-0.2-0.1-0.2-0.1c-0.7-0.2-1.5-0.2-2.2,0.2L13.2,24.3c-1.5,0.7-2.2,2.6-1.5,4.1l6.8,14.3c0.2,0.4,0.4,0.7,0.7,0.9    c0.1,0.2,0.3,0.4,0.5,0.5c0.1,0,0.2,0.1,0.3,0.1c0.8,0.4,1.8,0.4,2.6,0l22.2-10.5c0.9-0.4,1.5-1.2,1.7-2.1c0-0.1,0.1-0.1,0.1-0.2    C46.6,31.2,46.6,31.1,46.5,30.9z M33.6,26.2l4.1-9.7l6.2,13L33.6,26.2z M19.9,40.8l-6.2-13.1l10.1,2.9L19.9,40.8z M14.6,25.9    l21.1-10l-6.2,14.4L14.6,25.9z M43.9,31.9L21.8,42.3c-0.1,0-0.1,0.1-0.2,0.1l4.3-11.1l4.1,1.2c0.3,0.1,0.5,0.1,0.7,0    c0.2-0.1,0.4-0.3,0.5-0.5l1.6-3.8l11.3,3.7C44,31.8,43.9,31.8,43.9,31.9z"/></g></g><g id="Capa_1"></g></svg>